. 
 
http://www.torrenting.com          :     Once & For all ;)


               www . Torrenting . Com 

(((((((((((((= Enjoy No RAR releases =))))))))))))))))))))


...................................NFO:....................................

.Seeking.Justice.2011.DVDRip.XviD.AC3-SiC

Poster:
[IMG]http://i.imgur.com/9uIqh.jpg[/IMG]

IMDB Link: 
http://www.imdb.com/title/tt1214962/

Description:
After his wife is assaulted, a husband enlists the services of a vigilante group to help him settle the score.

General:
Complete name                    : Seeking.Justice.2011.DVDRip.XviD.AC3-SiC.avi
Format                           : AVI
Format/Info                      : Audio Video Interleave
File size                        : 897 MiB
Duration                         : 1h 44mn
Overall bit rate                 : 1 196 Kbps
Writing application              : VirtualDubMod 1.5.10.2 (build 2540/release)
Writing library                  : VirtualDubMod build 2540/release

Video
ID                               : 0
Format                           : MPEG-4 Visual
Format profile                   : Advanced Simple@L5
Format settings, BVOP            : 2
Format settings, QPel            : No
Format settings, GMC             : No warppoints
Format settings, Matrix          : Default (H.263)
Muxing mode                      : Packed bitstream
Codec ID                         : XVID
Codec ID/Hint                    : XviD
Duration                         : 1h 44mn
Bit rate                         : 736 Kbps
Width                            : 720 pixels
Height                           : 384 pixels
Display aspect ratio             : 1.875
Frame rate                       : 29.970 fps
Color space                      : YUV
Chroma subsampling               : 4:2:0
Bit depth                        : 8 bits
Scan type                        : Progressive
Compression mode                 : Lossy
Bits/(Pixel*Frame)               : 0.089
Stream size                      : 552 MiB (62%)
Writing library                  : XviD 64

Audio
ID                               : 1
Format                           : AC-3
Format/Info                      : Audio Coding 3
Mode extension                   : CM (complete main)
Codec ID                         : 2000
Duration                         : 1h 44mn
Bit rate mode                    : Constant
Bit rate                         : 448 Kbps
Channel(s)                       : 6 channels
Channel positions                : Front: L C R, Side: L R, LFE
Sampling rate                    : 48.0 KHz
Bit depth                        : 16 bits
Compression mode                 : Lossy
Stream size                      : 336 MiB (37%)
Alignment                        : Split accross interleaves
Interleave, duration             : 33 ms (1.00 video frame)
Interleave, preload duration     : 500 ms

Screenshots:
[IMG]http://i.imgur.com/83gqK.jpg[/IMG]
[IMG]http://i.imgur.com/dNedi.jpg[/IMG]
[IMG]http://i.imgur.com/pDiAA.jpg[/IMG]
[IMG]http://i.imgur.com/1Tfup.jpg[/IMG]

Source:  Seeking.Justice.2011.NTSC.DVDR
Enjoy!

Respects to T00NG0D, ELEKTRI4KA, PA, YeFsTe, MrRep and everyone in the struggle...